<mxfile host="app.diagrams.net" modified="2021-10-08T11:05:45.388Z" agent="5.0 (Windows NT 10.0; Win64; x64) AppleWebKit/537.36 (KHTML, like Gecko) Chrome/94.0.4606.71 Safari/537.36 Edg/94.0.992.38" etag="8RuWzi4HlYWIeg15IR7M" version="15.4.3" type="github">
  <diagram id="1JDLQcW3y6k1g4hGUiQu" name="第 1 页">
    <mxGraphModel dx="1006" dy="579" grid="1" gridSize="10" guides="1" tooltips="1" connect="1" arrows="1" fold="1" page="1" pageScale="1" pageWidth="827" pageHeight="1169" background="#F1FAEE" math="0" shadow="0">
      <root>
        <mxCell id="0" />
        <mxCell id="1" parent="0" />
      </root>
    </mxGraphModel>
  </diagram>
</mxfile>
